<mxfile host="app.diagrams.net" agent="Mozilla/5.0 (X11; Linux x86_64) AppleWebKit/537.36 (KHTML, like Gecko) Chrome/134.0.0.0 Safari/537.36" version="26.1.3">
  <diagram id="C5RBs43oDa-KdzZeNtuy" name="Page-1">
    <mxGraphModel dx="2261" dy="763" grid="1" gridSize="10" guides="1" tooltips="1" connect="1" arrows="1" fold="1" page="1" pageScale="1" pageWidth="827" pageHeight="1169" math="0" shadow="0">
      <root>
        <mxCell id="WIyWlLk6GJQsqaUBKTNV-0" />
        <mxCell id="WIyWlLk6GJQsqaUBKTNV-1" parent="WIyWlLk6GJQsqaUBKTNV-0" />
        <mxCell id="Bhp4iq6TBVEbJsl_o1Zy-6" value="" style="edgeStyle=orthogonalEdgeStyle;rounded=0;orthogonalLoop=1;jettySize=auto;html=1;" edge="1" parent="WIyWlLk6GJQsqaUBKTNV-1" target="Bhp4iq6TBVEbJsl_o1Zy-5">
          <mxGeometry relative="1" as="geometry">
            <mxPoint x="354" y="180" as="sourcePoint" />
          </mxGeometry>
        </mxCell>
        <mxCell id="Bhp4iq6TBVEbJsl_o1Zy-4" value="" style="edgeStyle=orthogonalEdgeStyle;rounded=0;orthogonalLoop=1;jettySize=auto;html=1;" edge="1" parent="WIyWlLk6GJQsqaUBKTNV-1" source="Bhp4iq6TBVEbJsl_o1Zy-1" target="Bhp4iq6TBVEbJsl_o1Zy-3">
          <mxGeometry relative="1" as="geometry" />
        </mxCell>
        <mxCell id="Bhp4iq6TBVEbJsl_o1Zy-1" value="Roll number and Name" style="shape=parallelogram;perimeter=parallelogramPerimeter;whiteSpace=wrap;html=1;fixedSize=1;" vertex="1" parent="WIyWlLk6GJQsqaUBKTNV-1">
          <mxGeometry x="294" y="300" width="120" height="60" as="geometry" />
        </mxCell>
        <mxCell id="Bhp4iq6TBVEbJsl_o1Zy-65" value="No" style="edgeStyle=orthogonalEdgeStyle;rounded=0;orthogonalLoop=1;jettySize=auto;html=1;entryX=0.5;entryY=0;entryDx=0;entryDy=0;" edge="1" parent="WIyWlLk6GJQsqaUBKTNV-1" source="Bhp4iq6TBVEbJsl_o1Zy-3" target="Bhp4iq6TBVEbJsl_o1Zy-52">
          <mxGeometry relative="1" as="geometry" />
        </mxCell>
        <mxCell id="Bhp4iq6TBVEbJsl_o1Zy-66" value="Yes" style="edgeStyle=orthogonalEdgeStyle;rounded=0;orthogonalLoop=1;jettySize=auto;html=1;entryX=1;entryY=0.5;entryDx=0;entryDy=0;" edge="1" parent="WIyWlLk6GJQsqaUBKTNV-1" source="Bhp4iq6TBVEbJsl_o1Zy-3" target="Bhp4iq6TBVEbJsl_o1Zy-17">
          <mxGeometry relative="1" as="geometry" />
        </mxCell>
        <mxCell id="Bhp4iq6TBVEbJsl_o1Zy-3" value="User already registered?" style="rhombus;whiteSpace=wrap;html=1;" vertex="1" parent="WIyWlLk6GJQsqaUBKTNV-1">
          <mxGeometry x="314" y="400" width="80" height="80" as="geometry" />
        </mxCell>
        <mxCell id="Bhp4iq6TBVEbJsl_o1Zy-7" style="edgeStyle=orthogonalEdgeStyle;rounded=0;orthogonalLoop=1;jettySize=auto;html=1;exitX=0.5;exitY=1;exitDx=0;exitDy=0;entryX=0.5;entryY=0;entryDx=0;entryDy=0;" edge="1" parent="WIyWlLk6GJQsqaUBKTNV-1" source="Bhp4iq6TBVEbJsl_o1Zy-5" target="Bhp4iq6TBVEbJsl_o1Zy-1">
          <mxGeometry relative="1" as="geometry" />
        </mxCell>
        <mxCell id="Bhp4iq6TBVEbJsl_o1Zy-5" value="User Registration" style="rounded=1;whiteSpace=wrap;html=1;" vertex="1" parent="WIyWlLk6GJQsqaUBKTNV-1">
          <mxGeometry x="294" y="200" width="120" height="60" as="geometry" />
        </mxCell>
        <mxCell id="Bhp4iq6TBVEbJsl_o1Zy-10" style="edgeStyle=orthogonalEdgeStyle;rounded=0;orthogonalLoop=1;jettySize=auto;html=1;entryX=0.5;entryY=0;entryDx=0;entryDy=0;" edge="1" parent="WIyWlLk6GJQsqaUBKTNV-1" source="Bhp4iq6TBVEbJsl_o1Zy-8" target="Bhp4iq6TBVEbJsl_o1Zy-5">
          <mxGeometry relative="1" as="geometry" />
        </mxCell>
        <mxCell id="Bhp4iq6TBVEbJsl_o1Zy-8" value="Start" style="ellipse;whiteSpace=wrap;html=1;rounded=1;" vertex="1" parent="WIyWlLk6GJQsqaUBKTNV-1">
          <mxGeometry x="314" y="90" width="80" height="80" as="geometry" />
        </mxCell>
        <mxCell id="Bhp4iq6TBVEbJsl_o1Zy-24" value="" style="edgeStyle=orthogonalEdgeStyle;rounded=0;orthogonalLoop=1;jettySize=auto;html=1;" edge="1" parent="WIyWlLk6GJQsqaUBKTNV-1" source="Bhp4iq6TBVEbJsl_o1Zy-17" target="Bhp4iq6TBVEbJsl_o1Zy-23">
          <mxGeometry relative="1" as="geometry" />
        </mxCell>
        <mxCell id="Bhp4iq6TBVEbJsl_o1Zy-17" value="Error: User already registered." style="rounded=0;whiteSpace=wrap;html=1;" vertex="1" parent="WIyWlLk6GJQsqaUBKTNV-1">
          <mxGeometry x="44" y="410" width="120" height="60" as="geometry" />
        </mxCell>
        <mxCell id="Bhp4iq6TBVEbJsl_o1Zy-23" value="End" style="ellipse;whiteSpace=wrap;html=1;rounded=0;" vertex="1" parent="WIyWlLk6GJQsqaUBKTNV-1">
          <mxGeometry x="-96" y="400" width="80" height="80" as="geometry" />
        </mxCell>
        <mxCell id="Bhp4iq6TBVEbJsl_o1Zy-56" value="" style="edgeStyle=orthogonalEdgeStyle;rounded=0;orthogonalLoop=1;jettySize=auto;html=1;" edge="1" parent="WIyWlLk6GJQsqaUBKTNV-1" source="Bhp4iq6TBVEbJsl_o1Zy-52" target="Bhp4iq6TBVEbJsl_o1Zy-55">
          <mxGeometry relative="1" as="geometry" />
        </mxCell>
        <mxCell id="Bhp4iq6TBVEbJsl_o1Zy-57" value="Yes" style="edgeLabel;html=1;align=center;verticalAlign=middle;resizable=0;points=[];" vertex="1" connectable="0" parent="Bhp4iq6TBVEbJsl_o1Zy-56">
          <mxGeometry x="-0.1333" relative="1" as="geometry">
            <mxPoint as="offset" />
          </mxGeometry>
        </mxCell>
        <mxCell id="Bhp4iq6TBVEbJsl_o1Zy-59" value="" style="edgeStyle=orthogonalEdgeStyle;rounded=0;orthogonalLoop=1;jettySize=auto;html=1;" edge="1" parent="WIyWlLk6GJQsqaUBKTNV-1" source="Bhp4iq6TBVEbJsl_o1Zy-52" target="Bhp4iq6TBVEbJsl_o1Zy-58">
          <mxGeometry relative="1" as="geometry" />
        </mxCell>
        <mxCell id="Bhp4iq6TBVEbJsl_o1Zy-60" value="No" style="edgeLabel;html=1;align=center;verticalAlign=middle;resizable=0;points=[];" vertex="1" connectable="0" parent="Bhp4iq6TBVEbJsl_o1Zy-59">
          <mxGeometry x="-0.175" y="3" relative="1" as="geometry">
            <mxPoint as="offset" />
          </mxGeometry>
        </mxCell>
        <mxCell id="Bhp4iq6TBVEbJsl_o1Zy-52" value="Roll number already exists?" style="rhombus;whiteSpace=wrap;html=1;" vertex="1" parent="WIyWlLk6GJQsqaUBKTNV-1">
          <mxGeometry x="314" y="550" width="80" height="80" as="geometry" />
        </mxCell>
        <mxCell id="Bhp4iq6TBVEbJsl_o1Zy-68" value="" style="edgeStyle=orthogonalEdgeStyle;rounded=0;orthogonalLoop=1;jettySize=auto;html=1;" edge="1" parent="WIyWlLk6GJQsqaUBKTNV-1" source="Bhp4iq6TBVEbJsl_o1Zy-55" target="Bhp4iq6TBVEbJsl_o1Zy-67">
          <mxGeometry relative="1" as="geometry" />
        </mxCell>
        <mxCell id="Bhp4iq6TBVEbJsl_o1Zy-55" value="Error: Roll number already registered" style="whiteSpace=wrap;html=1;" vertex="1" parent="WIyWlLk6GJQsqaUBKTNV-1">
          <mxGeometry x="44" y="560" width="120" height="60" as="geometry" />
        </mxCell>
        <mxCell id="Bhp4iq6TBVEbJsl_o1Zy-62" value="No" style="edgeStyle=orthogonalEdgeStyle;rounded=0;orthogonalLoop=1;jettySize=auto;html=1;" edge="1" parent="WIyWlLk6GJQsqaUBKTNV-1" source="Bhp4iq6TBVEbJsl_o1Zy-58" target="Bhp4iq6TBVEbJsl_o1Zy-61">
          <mxGeometry relative="1" as="geometry" />
        </mxCell>
        <mxCell id="Bhp4iq6TBVEbJsl_o1Zy-72" value="Yes" style="edgeStyle=orthogonalEdgeStyle;rounded=0;orthogonalLoop=1;jettySize=auto;html=1;entryX=0.5;entryY=0;entryDx=0;entryDy=0;" edge="1" parent="WIyWlLk6GJQsqaUBKTNV-1" source="Bhp4iq6TBVEbJsl_o1Zy-58" target="Bhp4iq6TBVEbJsl_o1Zy-70">
          <mxGeometry relative="1" as="geometry" />
        </mxCell>
        <mxCell id="Bhp4iq6TBVEbJsl_o1Zy-58" value="Is roll number non negative and within limits?" style="rhombus;whiteSpace=wrap;html=1;" vertex="1" parent="WIyWlLk6GJQsqaUBKTNV-1">
          <mxGeometry x="314" y="700" width="80" height="80" as="geometry" />
        </mxCell>
        <mxCell id="Bhp4iq6TBVEbJsl_o1Zy-64" value="" style="edgeStyle=orthogonalEdgeStyle;rounded=0;orthogonalLoop=1;jettySize=auto;html=1;exitX=0;exitY=0.5;exitDx=0;exitDy=0;" edge="1" parent="WIyWlLk6GJQsqaUBKTNV-1" source="Bhp4iq6TBVEbJsl_o1Zy-61" target="Bhp4iq6TBVEbJsl_o1Zy-63">
          <mxGeometry relative="1" as="geometry">
            <mxPoint x="34" y="740" as="sourcePoint" />
          </mxGeometry>
        </mxCell>
        <mxCell id="Bhp4iq6TBVEbJsl_o1Zy-61" value="Error: Invalid Roll Number" style="whiteSpace=wrap;html=1;" vertex="1" parent="WIyWlLk6GJQsqaUBKTNV-1">
          <mxGeometry x="44" y="710" width="120" height="60" as="geometry" />
        </mxCell>
        <mxCell id="Bhp4iq6TBVEbJsl_o1Zy-63" value="End" style="ellipse;whiteSpace=wrap;html=1;" vertex="1" parent="WIyWlLk6GJQsqaUBKTNV-1">
          <mxGeometry x="-96" y="700" width="80" height="80" as="geometry" />
        </mxCell>
        <mxCell id="Bhp4iq6TBVEbJsl_o1Zy-67" value="End" style="ellipse;whiteSpace=wrap;html=1;" vertex="1" parent="WIyWlLk6GJQsqaUBKTNV-1">
          <mxGeometry x="-96" y="550" width="80" height="80" as="geometry" />
        </mxCell>
        <mxCell id="Bhp4iq6TBVEbJsl_o1Zy-73" style="edgeStyle=orthogonalEdgeStyle;rounded=0;orthogonalLoop=1;jettySize=auto;html=1;entryX=0.5;entryY=0;entryDx=0;entryDy=0;" edge="1" parent="WIyWlLk6GJQsqaUBKTNV-1" source="Bhp4iq6TBVEbJsl_o1Zy-70" target="Bhp4iq6TBVEbJsl_o1Zy-71">
          <mxGeometry relative="1" as="geometry" />
        </mxCell>
        <mxCell id="Bhp4iq6TBVEbJsl_o1Zy-70" value="User Registration Successful." style="whiteSpace=wrap;html=1;" vertex="1" parent="WIyWlLk6GJQsqaUBKTNV-1">
          <mxGeometry x="294" y="850" width="120" height="60" as="geometry" />
        </mxCell>
        <mxCell id="Bhp4iq6TBVEbJsl_o1Zy-71" value="End" style="ellipse;whiteSpace=wrap;html=1;" vertex="1" parent="WIyWlLk6GJQsqaUBKTNV-1">
          <mxGeometry x="314" y="960" width="80" height="80" as="geometry" />
        </mxCell>
      </root>
    </mxGraphModel>
  </diagram>
</mxfile>
